<svg width="158" height="60" viewBox="0 0 158 60" fill="none" xmlns="http://www.w3.org/2000/svg">
<path d="M21.5704 4.60741V13.8815L28.6296 15.7407V39.8222H34.4445V1.23704L21.5704 4.60741ZM14.5111 4.61482L13.4445 4.33333V39.8222H14.5111V4.61482ZM11.0667 3.71111V39.8296H12.2148V4.01482L11.0667 3.71111ZM6.30371 2.46667V39.8296H7.45927V2.76296L6.30371 2.46667ZM3.91853 1.84445V39.8296H5.06668V2.14074L3.91853 1.84445ZM1.62964 1.23704V39.8222H2.6889V1.51852L1.62964 1.23704ZM8.68149 3.08889V39.8296H9.82964V3.39259L8.68149 3.08889Z" fill="#90AFB6"/>
<path d="M129.726 23.5111H134.267V25.2667H134.326C134.704 24.5926 135.763 22.9852 138.807 22.9852C140.274 22.9852 142.178 23.4815 143.496 25.8889C144.519 24.2741 146.163 22.9852 148.659 22.9852C149.8 22.9852 151.622 23.2148 152.941 24.6296C154.437 26.2741 154.696 27.2963 154.696 30.9333V39.7852H149.83V31.163C149.83 29.8444 149.8 27.5556 147.333 27.5556C144.637 27.5556 144.637 30.0148 144.637 30.9259V39.7778H139.77V30.9556C139.77 30.1037 139.77 27.5556 137.333 27.5556C134.607 27.5556 134.578 30.1926 134.578 31.163V39.7778H129.711V23.5111H129.726ZM1.71851 60H3.28888V57.1259C3.64443 57.3333 4.17777 57.4222 4.71851 57.4222C6.68147 57.4222 7.96295 55.9778 7.96295 54.1111C7.96295 52.2963 6.87406 50.9926 5.18517 50.9926C4.39258 50.9926 3.67406 51.3185 3.28888 51.7259V51.1407H1.71851V60ZM4.68888 52.4667C5.72591 52.4667 6.29628 53.1778 6.29628 54.1556C6.29628 55.1778 5.66665 55.9704 4.57777 55.9704C4.05925 55.9704 3.70369 55.8889 3.28147 55.6148V53.1333C3.66665 52.7111 4.15554 52.4667 4.68888 52.4667ZM10.4741 57.2741L13.3333 53.3926V57.2741H14.9037V51.1407H13.3333L10.4741 55.0222V51.1407H8.90369V57.2741H10.4741ZM21.0444 55.563C20.6889 55.8519 20.0667 56.1185 19.3111 56.1185C18.3407 56.1185 17.6074 55.6148 17.4741 54.6889H21.9037C21.9704 54.4593 22 54.2222 22 53.8444C22 52.1259 20.6815 50.9926 19.0963 50.9926C17.0815 50.9926 15.8518 52.4222 15.8518 54.2074C15.8518 56.1407 17.1704 57.4222 19.1481 57.4222C20.0074 57.4222 20.8815 57.1778 21.4889 56.6593L21.0444 55.563ZM19.0296 52.3037C19.9259 52.3037 20.4444 52.8889 20.437 53.637H17.4222C17.5852 52.837 18.0889 52.3037 19.0296 52.3037ZM26.6815 57.2741H28.2518V51.1407H23.6074L23.5111 53.0519C23.3778 55.4222 22.6518 55.9259 22.1185 55.8741L22.2518 57.4C23.9037 57.4 24.7185 56.7037 25.0222 53.363L25.0667 52.7111H26.6889V57.2741H26.6815ZM28.9333 52.7111H30.9481V57.2741H32.5185V52.7111H34.5185V51.1407H28.9333V52.7111ZM34.6518 54.2074C34.6518 56.0444 35.963 57.4222 37.9926 57.4222C40.0222 57.4222 41.3333 56.0444 41.3333 54.2074C41.3333 52.3704 40.0222 50.9926 37.9926 50.9926C35.963 50.9926 34.6518 52.3704 34.6518 54.2074ZM36.3259 54.2074C36.3259 53.1481 37.0592 52.4667 37.9926 52.4667C38.9481 52.4667 39.6667 53.1778 39.6667 54.2074C39.6667 55.2741 38.9555 55.963 37.9926 55.963C37.037 55.9704 36.3259 55.2296 36.3259 54.2074ZM42.2741 60H43.8444V57.1259C44.2 57.3333 44.7333 57.4222 45.2741 57.4222C47.237 57.4222 48.5185 55.9778 48.5185 54.1111C48.5185 52.2963 47.4296 50.9926 45.7407 50.9926C44.9481 50.9926 44.2296 51.3185 43.8444 51.7259V51.1407H42.2741V60ZM45.2444 52.4667C46.2815 52.4667 46.8518 53.1778 46.8518 54.1556C46.8518 55.1778 46.2222 55.9704 45.1333 55.9704C44.6148 55.9704 44.2593 55.8889 43.837 55.6148V53.1333C44.2222 52.7111 44.7185 52.4667 45.2444 52.4667ZM56.5555 57.2741H58.1259V51.1407H56.5555V53.4593H53.8741V51.1407H52.3037V57.2741H53.8741V54.9333H56.5555V57.2741ZM59.0667 54.2074C59.0667 56.0444 60.3778 57.4222 62.4074 57.4222C64.437 57.4222 65.7481 56.0444 65.7481 54.2074C65.7481 52.3704 64.437 50.9926 62.4074 50.9926C60.3778 50.9926 59.0667 52.3704 59.0667 54.2074ZM60.7481 54.2074C60.7481 53.1481 61.4815 52.4667 62.4148 52.4667C63.3704 52.4667 64.0889 53.1778 64.0889 54.2074C64.0889 55.2741 63.3778 55.963 62.4148 55.963C61.4518 55.9704 60.7481 55.2296 60.7481 54.2074ZM66.6963 57.2741C67.2518 57.2741 68.3704 57.3407 69.1333 57.3407C71.1111 57.3407 72.0518 56.7037 72.0518 55.4889C72.0518 54.7778 71.6 54.2741 70.7407 54.0741V54.0444C71.3555 53.9481 71.8889 53.4148 71.8889 52.6815C71.8889 51.563 70.8963 51.0741 69.1111 51.0741C68.1555 51.0741 67.2296 51.1259 66.6963 51.1407V57.2741ZM69.2444 54.6741C69.9778 54.6741 70.4 54.9185 70.4 55.3852C70.4 55.8074 69.9926 56.0963 69.2963 56.0963C68.9185 56.0963 68.4889 56.0519 68.2593 56.0444V54.6815H69.2444V54.6741ZM69.2444 52.3407C69.8296 52.3407 70.2222 52.5556 70.2222 53.0074C70.2222 53.4815 69.8 53.7185 69.2815 53.7185H68.2593V52.3704C68.4222 52.3556 68.8741 52.3407 69.2444 52.3407ZM72.7407 54.2074C72.7407 56.0444 74.0518 57.4222 76.0815 57.4222C78.1111 57.4222 79.4222 56.0444 79.4222 54.2074C79.4222 52.3704 78.1111 50.9926 76.0815 50.9926C74.0444 50.9926 72.7407 52.3704 72.7407 54.2074ZM74.4148 54.2074C74.4148 53.1481 75.1481 52.4667 76.0815 52.4667C77.037 52.4667 77.7555 53.1778 77.7555 54.2074C77.7555 55.2741 77.0444 55.963 76.0815 55.963C75.1259 55.9704 74.4148 55.2296 74.4148 54.2074ZM80.363 57.2741H81.9333V52.6148H84.4815V51.1407H80.363V57.2741ZM84.4741 54.2074C84.4741 56.0444 85.7852 57.4222 87.8148 57.4222C89.8444 57.4222 91.1555 56.0444 91.1555 54.2074C91.1555 52.3704 89.8444 50.9926 87.8148 50.9926C85.7778 50.9926 84.4741 52.3704 84.4741 54.2074ZM86.1481 54.2074C86.1481 53.1481 86.8815 52.4667 87.8148 52.4667C88.7704 52.4667 89.4889 53.1778 89.4889 54.2074C89.4889 55.2741 88.7778 55.963 87.8148 55.963C86.8593 55.9704 86.1481 55.2296 86.1481 54.2074ZM99.1185 57.2741H100.689V51.1407H94.9407V57.2741H96.5111V52.6148H99.1259V57.2741H99.1185ZM101.637 54.2074C101.637 56.0444 102.948 57.4222 104.978 57.4222C107.007 57.4222 108.319 56.0444 108.319 54.2074C108.319 52.3704 107.007 50.9926 104.978 50.9926C102.941 50.9926 101.637 52.3704 101.637 54.2074ZM103.311 54.2074C103.311 53.1481 104.044 52.4667 104.978 52.4667C105.933 52.4667 106.652 53.1778 106.652 54.2074C106.652 55.2741 105.941 55.963 104.978 55.963C104.022 55.9704 103.311 55.2296 103.311 54.2074ZM115.067 51.1407H113.089L110.881 54.1778L113.304 57.2741H115.348L112.704 54.0593L115.067 51.1407ZM109.259 57.2741H110.83V51.1407H109.259V57.2741ZM115.111 54.2074C115.111 56.0444 116.422 57.4222 118.452 57.4222C120.481 57.4222 121.793 56.0444 121.793 54.2074C121.793 52.3704 120.481 50.9926 118.452 50.9926C116.422 50.9926 115.111 52.3704 115.111 54.2074ZM116.785 54.2074C116.785 53.1481 117.519 52.4667 118.452 52.4667C119.407 52.4667 120.126 53.1778 120.126 54.2074C120.126 55.2741 119.415 55.963 118.452 55.963C117.496 55.9704 116.785 55.2296 116.785 54.2074ZM126.57 57.2741H128.141V51.1407H123.496L123.4 53.0519C123.267 55.4222 122.541 55.9259 122.007 55.8741L122.141 57.4C123.793 57.4 124.607 56.7037 124.911 53.363L124.956 52.7111H126.578V57.2741H126.57ZM134.274 55.563C133.919 55.8519 133.296 56.1185 132.541 56.1185C131.57 56.1185 130.837 55.6148 130.704 54.6889H135.133C135.2 54.4593 135.23 54.2222 135.23 53.8444C135.23 52.1259 133.911 50.9926 132.326 50.9926C130.311 50.9926 129.081 52.4222 129.081 54.2074C129.081 56.1407 130.4 57.4222 132.378 57.4222C133.237 57.4222 134.111 57.1778 134.719 56.6593L134.274 55.563ZM132.259 52.3037C133.156 52.3037 133.674 52.8889 133.667 53.637H130.652C130.815 52.837 131.319 52.3037 132.259 52.3037ZM140.333 57.2741H141.904V51.1407H140.333V53.4593H137.652V51.1407H136.081V57.2741H137.652V54.9333H140.333V57.2741ZM144.793 57.2741L147.652 53.3926V57.2741H149.222V51.1407H147.652L144.793 55.0222V51.1407H143.222V57.2741H144.793ZM153.556 51.1407C151.348 51.1407 150.504 52.1333 150.504 53.3185C150.504 54.3259 151.156 54.8963 151.689 55.0889L150.052 57.2667H151.852L153.119 55.4296H153.993V57.2667H155.556V51.1333H153.556V51.1407ZM152.178 53.437C152.178 52.9704 152.533 52.5111 153.296 52.5111H153.993V54.2815H153.178C152.681 54.2815 152.178 53.9407 152.178 53.437ZM21.8667 13.8815V39.8222H14.5037V15.7407L21.8667 13.8815ZM40.7111 18.0889H47.837L52.1481 32.363H52.2074L56.4593 18.0889H63.6148V39.7852H58.5111L58.6889 23.5407L58.6296 23.4815L54 39.7852H50.3333L45.6889 23.4815L45.6296 23.5407L45.8074 39.7852H40.7037V18.0889H40.7111ZM78.0815 29.8444C77.8444 28.8815 76.9407 27.0889 74.3926 27.0889C71.8444 27.0889 70.9333 28.8815 70.6963 29.8444H78.0815ZM82.3926 34.6815C81.6 36.5259 80.4593 37.9037 79.0815 38.8444C77.7037 39.8148 76.1778 40.3111 74.4444 40.3111C69.7852 40.3111 65.8296 36.5259 65.8296 31.6963C65.8296 27.1556 69.4074 22.9926 74.363 22.9926C79.3185 22.9926 82.9555 26.8889 82.9555 31.8444C82.9555 32.5185 82.9259 32.7556 82.837 33.1333H70.637C70.9555 35.0963 72.5407 36.2148 74.4444 36.2148C75.9407 36.2148 76.7333 35.5407 77.4074 34.6889H82.3926V34.6815ZM90.837 23.5111H93.1852V27.6148H90.837V39.7778H85.9704V27.6148H83.563V23.5111H85.9704V18.0889H90.837V23.5111ZM94.563 23.5111H99.1333V25.2444H99.1926C99.5704 24.4519 100.452 22.9556 103.267 22.9556V27.8519C101.007 27.9407 99.4296 28.3481 99.4296 30.8444V39.7852H94.563V23.5111ZM110.178 39.7852H105.311V23.5111H110.178V39.7852ZM105.311 16.4741H110.178V20.9037H105.311V16.4741ZM127.274 39.7852H122.674V38.0593H122.615C121.615 40.1407 119.622 40.3111 118.393 40.3111C117.393 40.3111 115.052 40.0741 113.615 38.2593C112.296 36.6444 112.148 35.5037 112.148 33.2519V23.5111H117.015V32.5111C117.015 33.6222 117.015 35.763 119.622 35.763C121.03 35.763 122.407 35.0296 122.407 32.4519V23.5111H127.274V39.7852Z" fill="#484C55"/>
</svg>
